<?xml version="1.0" encoding="UTF-8"?><svg id="a" xmlns="http://www.w3.org/2000/svg" viewBox="0 0 201.16 250.28"><defs><style>.b{fill:#342b13;}.c{fill:#845322;}.d{fill:#d8bf86;}</style></defs><g><path class="c" d="M126.86,113.88c0,7.21-2.93,13.24-6.86,14.83-.09,.06-.19,.12-.28,.18-2.34-1.03-5.95,.58-8.45,3.9-2.75,3.66-3.13,8.01-.86,9.72,1.67,1.25,4.29,.75,6.65-1.04l-1.05,6.25h0l-5.23-.41-8.54-.69-6.22-.5h-.03l-1.3-.11h-.01l-6.47-.52c-.67-1.19-1.12-2.66-1.37-4.39l-.66-3.24c.93-.28,1.98-.62,3.18-1.04l-3.71-7.1s-.6-.16-1.56-.26c-3.76-2.18-6.06-5.08-6.06-8.26,0-1.33,.4-2.61,1.14-3.81-.74-1.9-1.14-3.92-1.14-6.02,0-3.92,1.4-7.57,3.81-10.64-1.5-1.12-2.47-2.9-2.47-4.91,0-3.37,2.73-6.11,6.1-6.11,2.66,0,4.92,1.7,5.76,4.08,3.27-1.36,6.97-2.13,10.89-2.13,4.9,0,9.45,1.2,13.25,3.25,1.54-2.64,4.6-3.92,7.27-2.89,3,1.17,4.39,4.8,3.1,8.12-.4,1.02-1,1.89-1.73,2.58,1.75,2.78,2.85,6.75,2.85,11.16Z"/><path class="d" d="M94.89,132.55s-8.21,12.74,2.41,12.57,11.2-11.96,11.2-11.96c0,0-5.9,2.6-13.6-.61Z"/><ellipse class="d" cx="100.03" cy="121.89" rx="7.36" ry="5.2"/><ellipse class="b" cx="94.05" cy="110.92" rx="2.35" ry="4.17"/><ellipse class="b" cx="100.03" cy="119.26" rx="1.2" ry="1.07"/><ellipse class="b" cx="107.39" cy="112" rx="2.35" ry="4.17"/><path class="b" d="M105.49,123.04c-.17,2.08-2.86,3.57-6.02,3.31s-5.58-2.15-5.41-4.23l11.44,.92Z"/><path class="d" d="M89.36,94.74c-.93-.23-2.4,.06-3.87,.83-1.51,.79-2.6,1.87-2.91,2.78-.14-.17-.28-.36-.39-.56-1.08-1.88-.44-4.28,1.44-5.36,1.88-1.08,4.28-.44,5.36,1.44,.16,.28,.29,.58,.37,.88Z"/><path class="d" d="M124.57,99.67c-.23,.6-.56,1.14-.96,1.6-.12-1.39-.97-2.97-2.41-4.21-1.42-1.23-3.09-1.84-4.48-1.77,1.25-1.84,3.48-2.69,5.45-1.92,2.33,.9,3.41,3.73,2.41,6.3Z"/></g><path class="c" d="M89.36,136.82c-1.2,.42-2.25,.76-3.18,1.04-5.38,1.6-6.57,.97-6.57,.97,0,0-8.41-3.33-4.08-7.16,2.72-2.41,6.48-2.43,8.56-2.21,.96,.1,1.56,.26,1.56,.26l3.71,7.1Z"/><path class="c" d="M119.51,138.99c-.74,.99-1.58,1.82-2.45,2.48-2.36,1.79-4.98,2.29-6.65,1.04-2.27-1.71-1.89-6.06,.86-9.72,2.5-3.32,6.11-4.93,8.45-3.9,.23,.1,.45,.23,.65,.38,2.28,1.71,1.89,6.06-.86,9.72Z"/><ellipse class="c" cx="94.5" cy="152.88" rx="6.93" ry="6.04" transform="translate(-76.85 207.08) rotate(-75.83)"/><ellipse class="c" cx="105.95" cy="152.98" rx="7.61" ry="7.06" transform="translate(-62.98 231.01) rotate(-80.09)"/><path class="c" d="M88.21,145.49l.25,6.78,10.66,3.06s.4-2.82,2.11-7.6c0,0-1.25,8.13-.71,7.98s10.81,1.39,10.81,1.39c0,0,3.33-4.83,4.68-9.37l-27.8-2.24Z"/></svg>