<?xml version="1.0" encoding="UTF-8"?><svg id="a" xmlns="http://www.w3.org/2000/svg" viewBox="0 0 201.16 250.28"><defs><style>.b{fill:#fff;}.c{fill:#c2b2b1;}.d{fill:#fcd7d3;}</style></defs><path class="b" d="M78.52,151.36c4.29,2.26,10.98-1.48,12.1-2.14-1.7-1.99-2.48-5.71-1.8-9.73,.48-2.8,1.57-5.23,2.95-6.89v-.02c-9.56-2.84-16.48-11.03-16.48-20.7,0-5.4,2.16-10.34,5.73-14.14l.91-5.14c2.1-.03,3.89,.12,5.4,.38,3.49-1.82,7.53-2.87,11.84-2.87,1.74,0,3.44,.17,5.08,.5h-.01c6.18-.66,11.82,1.71,11.82,1.71l-.67,3.59h-.01c4.71,3.97,7.67,9.66,7.67,15.98,0,.48-.02,.95-.06,1.43,1.78,1.82,2.87,4.3,2.87,7.04,0,4.48-2.92,8.27-6.97,9.58,3.7,.36,6.44,1.87,6.56,3.83,.06,.95-.51,1.87-1.52,2.65,.19,.33,.3,.67,.33,1.04,.15,2.45-3.85,4.69-8.94,5-.3,.02-.59,.03-.88,.03,.3,1.66,.01,3.25-.71,4.4l4.35,1.51c.54,.19,.99,.53,1.31,.96,1.57-.48,2.89-.13,3.98,.96-.15,1.15-.63,2.22-1.36,3.21,.87,.19,1.6,.68,2.2,1.46-.56,2.13-2.26,3.78-4.53,5.21-1.6-.2-2.64-.65-3.88-2.24l-7.57-3.76c-.18-.09-.34-.19-.49-.31-1.73,.84-3.85,1.33-6.14,1.33-2.6,0-4.98-.64-6.81-1.69h0s-8.21-1.55-14.59,1.27c-6.38,2.82-4.65,0-4.65,0,.89-3.63,2.97-3.41,2.97-3.41Z"/><path class="c" d="M90.29,137.6c.48-2.8,1.57-5.23,2.95-6.89v-.02c-9.56-2.84-16.48-11.03-16.48-20.71,0-4.03,1.2-7.8,3.3-11.04-2.99,3.63-4.76,8.15-4.76,13.04,0,9.67,6.92,17.86,16.48,20.7v.02c-1.39,1.66-2.48,4.09-2.95,6.89-.59,3.48-.09,6.73,1.16,8.83,1.03-.47,1.78-.91,2.1-1.09-1.7-1.99-2.48-5.7-1.79-9.73Z"/><path class="c" d="M75.51,154.77s-1.73,2.82,4.65,0c6.38-2.82,14.59-1.27,14.59-1.27,1.84,1.05,4.21,1.69,6.81,1.69,2.29,0,4.41-.49,6.14-1.33,.15,.12,.31,.23,.49,.32l7.57,3.76c1.24,1.59,2.28,2.04,3.88,2.24,1.84-1.15,3.3-2.46,4.09-4.04-.73,.74-1.62,1.41-2.63,2.04-1.6-.2-2.64-.65-3.88-2.24l-7.57-3.76c-.18-.09-.34-.19-.49-.32-1.73,.84-3.85,1.33-6.14,1.33-2.6,0-4.97-.64-6.81-1.69,0,0-8.21-1.55-14.59,1.27-6.38,2.82-4.65,0-4.65,0,.1-.4,.21-.75,.33-1.06-.62,.41-1.35,1.26-1.79,3.05Z"/><path class="c" d="M86.57,94.09h-3.58l-.63,2.53s.42-1.31,4.22-2.53Z"/><path class="c" d="M114.36,94.09l.39-1.56s-4.1-1.43-6.37-.91c0,0,4.42,1.11,5.98,2.47Z"/><path class="c" d="M120.03,110.88s-4.58-4.8-8.12,0c0,0,4.21-2.15,8.12,0Z"/><circle class="d" cx="111.56" cy="118.96" r="4.25"/><path class="c" d="M123.93,136.4s-4.93,2.53-9.13,2.14l.29,.64s6.93-1.04,8.84-2.78Z"/><path class="c" d="M122.01,153.52s-.38,1.12-1.31,1.07c0,0-.44,.58-2.94,0l-3.65-1.81,.49-.19,3.18,1.62s3.55,.97,4.22-.68Z"/></svg>