<?xml version="1.0" encoding="UTF-8"?><svg id="a" xmlns="http://www.w3.org/2000/svg" viewBox="0 0 1920 1080"><defs><style>.b{fill:#346734;}.c{fill:#a7cdec;stroke:#231f20;stroke-miterlimit:10;}.d{fill:#203f20;}.e{fill:#321b0f;}</style></defs><rect class="c" y="0" width="1920" height="1080"/><path class="b" d="M1920,1074.94c0,1.69-.09,3.38-.27,5.06H.27c-.18-1.68-.27-3.37-.27-5.06,0-118.28,429.81-214.16,960-214.16s960,95.88,960,214.16Z"/><g><rect class="e" x="377.77" y="758.4" width="28.47" height="179.7"/><polygon class="d" points="441.87 687.93 458.79 687.93 392.01 557.29 325.23 687.93 342.15 687.93 325.23 721.03 344.33 721.03 325.23 758.4 345.31 758.4 325.23 797.69 458.79 797.69 438.7 758.4 458.79 758.4 439.68 721.03 458.79 721.03 441.87 687.93"/></g><g><rect class="e" x="529.18" y="800.39" width="21.25" height="134.12"/><polygon class="d" points="577.02 747.79 589.65 747.79 539.81 650.3 489.97 747.79 502.59 747.79 489.97 772.5 504.22 772.5 489.97 800.39 504.96 800.39 489.97 829.71 589.65 829.71 574.65 800.39 589.65 800.39 575.39 772.5 589.65 772.5 577.02 747.79"/></g><g><rect class="e" x="239.29" y="801.93" width="36.59" height="204.48"/><polygon class="b" points="257.59 698 171.77 846.64 343.41 846.64 257.59 698"/><polygon class="b" points="257.59 653.29 171.77 801.93 343.41 801.93 257.59 653.29"/><polygon class="b" points="257.59 610.77 171.77 759.41 343.41 759.41 257.59 610.77"/><polygon class="b" points="257.59 573.1 171.77 721.74 343.41 721.74 257.59 573.1"/></g><g><rect class="e" x="462.85" y="799.41" width="20.36" height="113.75"/><polygon class="b" points="473.02 741.59 425.28 824.28 520.77 824.28 473.02 741.59"/><polygon class="b" points="473.02 716.72 425.28 799.41 520.77 799.41 473.02 716.72"/><polygon class="b" points="473.02 693.06 425.28 775.75 520.77 775.75 473.02 693.06"/><polygon class="b" points="473.02 672.11 425.28 754.8 520.77 754.8 473.02 672.11"/></g><g><rect class="e" x="589.65" y="833.19" width="20.36" height="149.61"/><polygon class="b" points="599.82 757.15 552.08 865.91 647.57 865.91 599.82 757.15"/><polygon class="b" points="599.82 724.43 552.08 833.19 647.57 833.19 599.82 724.43"/><polygon class="b" points="599.82 693.32 552.08 802.08 647.57 802.08 599.82 693.32"/><polygon class="b" points="599.82 665.76 552.08 774.52 647.57 774.52 599.82 665.76"/></g><g><rect class="e" x="1490.03" y="768.96" width="28.47" height="179.7" transform="translate(3008.54 1717.61) rotate(-180)"/><polygon class="d" points="1454.41 698.48 1437.49 698.48 1504.27 567.85 1571.05 698.48 1554.13 698.48 1571.05 731.58 1551.94 731.58 1571.05 768.96 1550.96 768.96 1571.05 808.25 1437.49 808.25 1457.57 768.96 1437.49 768.96 1456.59 731.58 1437.49 731.58 1454.41 698.48"/></g><g><rect class="e" x="1345.84" y="810.94" width="21.25" height="134.12" transform="translate(2712.94 1756) rotate(-180)"/><polygon class="d" points="1319.26 758.35 1306.63 758.35 1356.47 660.85 1406.31 758.35 1393.68 758.35 1406.31 783.05 1392.05 783.05 1406.31 810.94 1391.32 810.94 1406.31 840.27 1306.63 840.27 1321.62 810.94 1306.63 810.94 1320.89 783.05 1306.63 783.05 1319.26 758.35"/></g><g><rect class="e" x="1620.39" y="812.49" width="36.59" height="204.48" transform="translate(3277.38 1829.45) rotate(-180)"/><polygon class="b" points="1638.69 708.56 1724.51 857.2 1552.87 857.2 1638.69 708.56"/><polygon class="b" points="1638.69 663.84 1724.51 812.49 1552.87 812.49 1638.69 663.84"/><polygon class="b" points="1638.69 621.32 1724.51 769.96 1552.87 769.96 1638.69 621.32"/><polygon class="b" points="1638.69 583.66 1724.51 732.3 1552.87 732.3 1638.69 583.66"/></g><g><rect class="e" x="1413.07" y="809.96" width="20.36" height="113.75" transform="translate(2846.5 1733.68) rotate(-180)"/><polygon class="b" points="1423.25 752.14 1470.99 834.84 1375.51 834.84 1423.25 752.14"/><polygon class="b" points="1423.25 727.27 1470.99 809.96 1375.51 809.96 1423.25 727.27"/><polygon class="b" points="1423.25 703.61 1470.99 786.31 1375.51 786.31 1423.25 703.61"/><polygon class="b" points="1423.25 682.66 1470.99 765.35 1375.51 765.35 1423.25 682.66"/></g><g><rect class="e" x="1286.27" y="843.75" width="20.36" height="149.61" transform="translate(2592.9 1837.11) rotate(-180)"/><polygon class="b" points="1296.45 767.7 1344.19 876.46 1248.71 876.46 1296.45 767.7"/><polygon class="b" points="1296.45 734.99 1344.19 843.75 1248.71 843.75 1296.45 734.99"/><polygon class="b" points="1296.45 703.87 1344.19 812.63 1248.71 812.63 1296.45 703.87"/><polygon class="b" points="1296.45 676.31 1344.19 785.07 1248.71 785.07 1296.45 676.31"/></g></svg>