<?xml version="1.0" encoding="UTF-8"?><svg id="a" xmlns="http://www.w3.org/2000/svg" viewBox="0 0 1920 1080"><defs><style>.b{fill:#342b13;}.c{fill:#939291;}.d{fill:#51ba65;}.e{fill:#845322;}.f{fill:#d8bf86;}</style></defs><path class="c" d="M884.85,498.21l2.15-3.47c.29-.47,.99-.45,1.26,.03l53.01,96.87c.13,.24,.12,.54-.04,.76l-1.9,2.75c-.3,.44-.96,.41-1.23-.05l-53.31-93.19c-.66-1.15-.63-2.58,.07-3.71Z"/><path class="c" d="M1035.53,500.85l-4.13-4.89c-.67-.79-1.91-.68-2.43,.22l-54.54,93.35c-.52,.89-.04,2.04,.95,2.27h0c.61,.14,1.24-.11,1.58-.63l58.68-88.46c.38-.57,.34-1.33-.11-1.85Z"/><rect class="c" x="984.9" y="486.53" width="5.14" height="85.53" rx="2.57" ry="2.57" transform="translate(150.31 -215.29) rotate(13.46)"/><rect class="c" x="933.5" y="487.57" width="5.14" height="111.36" rx="2.57" ry="2.57" transform="translate(-60 119.95) rotate(-7.1)"/><g><path class="e" d="M973.61,594.23c.31-.19,.61-.38,.89-.57,3.94-1.59,6.86-7.62,6.86-14.83,0-4.41-1.1-8.38-2.85-11.17,.73-.68,1.34-1.56,1.73-2.58,1.29-3.32-.1-6.95-3.1-8.12-2.67-1.04-5.73,.24-7.27,2.88-3.8-2.05-8.35-3.24-13.25-3.24-3.92,0-7.62,.77-10.89,2.12-.84-2.37-3.1-4.08-5.76-4.08-3.37,0-6.11,2.73-6.11,6.11,0,2.01,.97,3.8,2.47,4.91-2.41,3.07-3.81,6.72-3.81,10.64,0,2.1,.4,4.12,1.15,6.02-.74,1.2-1.15,2.48-1.15,3.81,0,3.31,2.48,6.31,6.51,8.52-.79,.89-1.45,2.04-1.88,3.36-1.18,3.63-.17,7.21,2.24,8,.63,.2,1.29,.2,1.94,.02,.25,1.73,.7,3.2,1.37,4.39,.05,.44,.17,.85,.34,1.24-1.04,2.42-1.52,5.67,1.89,7.67,2.97,1.74,5.86-.16,8.02-2.52-1.12,2.72-.81,5.23,4.09,5.23,7.46,0,11.53-5.74,13.32-9.23,.65-.69,1.07-1.61,1.13-2.63,.63-.84,1.06-1.9,1.29-3.15,.92,.51,1.9,.67,2.82,.39,2.43-.73,3.51-4.29,2.41-7.95-.81-2.7-2.58-4.69-4.43-5.26Z"/><path class="f" d="M949.4,597.5s-8.21,12.74,2.41,12.57,11.2-11.96,11.2-11.96c0,0-5.9,2.6-13.6-.61Z"/><ellipse class="f" cx="954.54" cy="586.84" rx="7.36" ry="5.2"/><ellipse class="b" cx="948.56" cy="575.87" rx="2.35" ry="4.17"/><ellipse class="b" cx="954.54" cy="584.21" rx="1.2" ry="1.07"/><ellipse class="b" cx="961.9" cy="576.95" rx="2.35" ry="4.17"/><path class="b" d="M960,587.99c-.17,2.08-2.86,3.57-6.02,3.31s-5.58-2.15-5.41-4.23l11.44,.92Z"/><path class="f" d="M943.87,559.69c-.93-.23-2.4,.06-3.87,.83-1.51,.79-2.6,1.87-2.91,2.78-.14-.17-.28-.36-.39-.56-1.08-1.88-.44-4.28,1.44-5.36,1.88-1.08,4.28-.44,5.36,1.44,.16,.28,.29,.58,.37,.88Z"/><path class="f" d="M979.08,564.62c-.23,.6-.56,1.14-.96,1.6-.12-1.39-.97-2.97-2.41-4.21-1.42-1.23-3.09-1.84-4.48-1.77,1.25-1.84,3.48-2.69,5.45-1.92,2.33,.9,3.41,3.73,2.41,6.3Z"/></g><rect class="c" x="969.7" y="593.35" width="5.14" height="14.15" rx="2.57" ry="2.57" transform="translate(166.45 -209.8) rotate(13.46)"/><rect class="c" x="939.42" y="594.14" width="4.14" height="12.46" rx="2.07" ry="2.07" transform="translate(-86.42 164.2) rotate(-9.53)"/><path class="d" d="M1036.29,501.74c-26.56-17.77-134.77-17.51-152.57-1.69,3.69-23.62,36.39-42.1,76.18-42.1s74.04,19.37,76.39,43.8Z"/></svg>