<?xml version="1.0" encoding="UTF-8"?><svg id="a" xmlns="http://www.w3.org/2000/svg" viewBox="0 0 1920 1080"><defs><style>.b,.c{fill:#fff;}.c{opacity:.3;}.d{fill:#eaeaea;}</style></defs><path class="c" d="M726.37,0c25.67,51.21,79.61,94.32,150.07,121.8,37.68,50.08,137.86,85.89,255.55,85.89,74.43,0,141.86-14.33,190.91-37.53,75.26,47.53,207.49,79.06,358.06,79.06,88.62,0,170.89-10.92,238.93-29.61V0H726.37Z"/><g><path class="b" d="M672.98,463.27c12.53-11.37,19.51-23.96,19.51-37.21,0-50.51-101.27-91.46-226.19-91.46-86.88,0-162.3,19.81-200.19,48.86-94.97,10.18-167.62,66.32-167.62,134.06,0,74.95,88.94,135.72,198.66,135.72,47.39,0,90.9-11.34,125.05-30.27,23.63,1.55,48.27,2.38,73.61,2.38,175.98,0,318.64-39.63,318.64-88.51,0-30.67-56.16-57.69-141.46-73.57Z"/><path class="d" d="M814.44,536.84c0,48.88-142.66,88.51-318.64,88.51-25.33,0-49.98-.82-73.61-2.38-34.14,18.93-77.65,30.27-125.04,30.27-71.29,0-133.8-25.65-168.85-64.18,73.15,15.13,166.51,19.31,267.05,9.2,155.99-15.69,288.18-61.66,351.41-115.96,42.4,15.03,67.68,33.96,67.68,54.54Z"/></g><g><g><path class="b" d="M1859.91,914.97c0,4.04-2.4,7.99-6.98,11.79-.29,.24-.58,.48-.88,.72-.31,.23-.62,.47-.94,.7-.96,.71-2,1.42-3.11,2.11-.74,.46-1.51,.93-2.32,1.39-.8,.46-1.64,.92-2.51,1.38-.43,.22-.88,.46-1.33,.68-.9,.46-1.83,.91-2.8,1.35-1.45,.67-2.96,1.34-4.54,2-1.06,.44-2.15,.87-3.27,1.32-.55,.22-1.13,.43-1.7,.65-4.59,1.73-9.66,3.41-15.18,5.05-4.14,1.23-8.53,2.43-13.17,3.59-3.86,.98-7.9,1.93-12.08,2.86-3.35,.75-6.81,1.48-10.36,2.19-14.21,2.86-30.01,5.49-47.16,7.84-3.21,.44-6.48,.87-9.79,1.29-1.11,.14-2.22,.28-3.32,.42-3.34,.42-6.72,.82-10.16,1.21-2.29,.26-4.59,.52-6.92,.77-53.48,5.84-117.09,9.22-185.34,9.22-27.33,0-53.93-.54-79.43-1.57-36.85,12.51-83.8,20.01-134.94,20.01h0c-1.2,0-2.39,0-3.59-.02-.73,0-1.46,0-2.19-.02-.84,0-1.68-.02-2.52-.04-.92,0-1.83-.03-2.74-.05-1.64-.04-3.28-.08-4.91-.13-.64-.02-1.27-.04-1.9-.06-1.08-.03-2.16-.08-3.24-.12-1.18-.05-2.37-.09-3.54-.15-.45-.02-.89-.04-1.33-.06-.81-.04-1.61-.09-2.4-.13-1.45-.08-2.87-.16-4.3-.26-1.37-.09-2.73-.18-4.09-.28-.66-.05-1.31-.09-1.97-.15-.72-.05-1.45-.11-2.17-.17-.78-.06-1.55-.12-2.32-.19-4.37-.37-8.67-.8-12.94-1.28-2.04-.23-4.06-.47-6.06-.73-.96-.12-1.91-.25-2.85-.37-1.24-.16-2.47-.33-3.7-.5-1.06-.15-2.13-.31-3.19-.47-1.07-.15-2.14-.32-3.2-.49-1.98-.31-3.94-.63-5.89-.96-.15-.03-.3-.05-.44-.08-2.09-.36-4.18-.74-6.23-1.12s-4.1-.79-6.13-1.21c-1-.2-2.02-.41-3.02-.63-2-.43-3.99-.86-5.96-1.32-.99-.22-1.96-.46-2.94-.69-.98-.23-1.94-.46-2.91-.7-1.93-.48-3.85-.97-5.74-1.46-1.84-.49-3.66-.99-5.45-1.49-1.09-.31-2.18-.62-3.25-.94-.81-.24-1.61-.48-2.4-.72-.85-.26-1.68-.51-2.52-.77-.13-.04-.26-.08-.39-.12-.83-.26-1.64-.53-2.46-.79-1.77-.57-3.51-1.15-5.23-1.74-.92-.32-1.83-.63-2.73-.96-.8-.29-1.59-.57-2.37-.86-.84-.3-1.67-.61-2.5-.93-.83-.31-1.65-.63-2.46-.94-.97-.37-1.92-.75-2.85-1.14-.66-.26-1.31-.53-1.96-.8-.79-.32-1.58-.65-2.36-.99-.78-.33-1.55-.67-2.32-1.01-.66-.29-1.31-.59-1.96-.88-.36-.16-.72-.32-1.07-.49-1.25-.58-2.48-1.16-3.69-1.75-.55-.26-1.1-.53-1.63-.8-.41-.2-.83-.41-1.23-.62-2.8-1.42-5.5-2.87-8.08-4.35-1.15-.66-2.26-1.32-3.37-1.99-1.9-1.16-3.74-2.34-5.51-3.53,78.93,10.01,179.69,12.77,288.18,6.08,168.34-10.38,311-40.78,379.24-76.69,.18,.04,.37,.08,.54,.12,1.75,.39,3.46,.77,5.15,1.16,9.52,2.18,18.16,4.49,25.84,6.9,.72,.22,1.44,.45,2.14,.67,.66,.22,1.31,.43,1.96,.65,.53,.18,1.06,.36,1.58,.53,7.4,2.52,13.74,5.16,18.95,7.88,.83,.43,1.61,.87,2.38,1.3,.51,.29,1,.57,1.48,.87,.24,.14,.48,.29,.72,.43,.23,.15,.46,.29,.69,.44,.23,.15,.45,.29,.68,.44,.92,.6,1.78,1.21,2.6,1.83,.36,.28,.71,.56,1.05,.84,1.37,1.11,2.55,2.24,3.54,3.38,.14,.16,.28,.32,.41,.49,.12,.15,.24,.3,.36,.46,.1,.12,.2,.26,.29,.39,.1,.13,.2,.26,.28,.39,.09,.13,.19,.27,.27,.41,.09,.13,.18,.26,.25,.4,.29,.46,.54,.93,.75,1.39,.08,.15,.14,.31,.21,.46,.07,.15,.13,.31,.19,.46,.08,.2,.15,.4,.21,.61,.07,.21,.13,.42,.18,.63,.05,.19,.09,.37,.12,.56,.04,.18,.08,.36,.09,.55,.03,.16,.05,.32,.06,.47,.03,.32,.05,.63,.05,.95Z"/><path class="d" d="M1859.91,914.97c0,4.04-2.4,7.99-6.98,11.79-.29,.24-.58,.48-.88,.72-.31,.23-.62,.47-.94,.7-.96,.71-2,1.42-3.11,2.11-.74,.46-1.51,.93-2.32,1.39-.8,.46-1.64,.92-2.51,1.38-.43,.22-.88,.46-1.33,.68-.9,.45-1.83,.91-2.8,1.35-1.45,.67-2.96,1.34-4.54,2-1.06,.44-2.15,.87-3.27,1.32-.55,.22-1.13,.43-1.7,.65-4.59,1.73-9.66,3.4-15.18,5.05-4.14,1.22-8.53,2.42-13.17,3.59-3.86,.97-7.9,1.92-12.08,2.86-3.35,.74-6.81,1.47-10.36,2.19-14.21,2.86-30.01,5.49-47.16,7.84-3.22,.44-6.49,.87-9.79,1.29-1.11,.14-2.22,.28-3.32,.42-3.34,.42-6.73,.82-10.16,1.21-2.29,.26-4.59,.52-6.92,.77-53.48,5.84-117.09,9.22-185.34,9.22-27.33,0-53.93-.54-79.43-1.57-36.85,12.51-83.8,20.01-134.94,20.01h0c-1.2,0-2.39,0-3.59-.02-.73,0-1.46,0-2.19-.02-.84,0-1.68-.02-2.52-.04-.92,0-1.83-.03-2.74-.05-1.64-.04-3.28-.08-4.91-.13-.64-.02-1.27-.04-1.9-.06-1.08-.03-2.16-.08-3.24-.12-1.18-.05-2.37-.09-3.54-.15-.45-.02-.89-.04-1.33-.06-.81-.04-1.61-.09-2.4-.13-1.45-.08-2.87-.16-4.3-.26-1.37-.09-2.73-.18-4.09-.28-.66-.05-1.31-.09-1.97-.15-.72-.05-1.45-.11-2.17-.17-.78-.06-1.55-.12-2.32-.19-4.37-.37-8.67-.8-12.94-1.28-2.04-.23-4.06-.47-6.06-.73-.96-.12-1.91-.25-2.85-.37-1.24-.16-2.47-.33-3.7-.5-1.06-.15-2.13-.31-3.19-.47-1.07-.15-2.14-.32-3.2-.49-1.98-.31-3.94-.63-5.89-.96-.15-.03-.3-.05-.44-.08-2.09-.36-4.18-.74-6.23-1.12s-4.1-.79-6.13-1.21c-1-.2-2.02-.41-3.02-.63-2-.43-3.99-.86-5.96-1.32-.99-.22-1.96-.46-2.94-.69-.98-.23-1.94-.46-2.91-.7-1.93-.48-3.85-.97-5.74-1.46-1.84-.49-3.66-.99-5.45-1.49-1.09-.31-2.18-.62-3.25-.94-.81-.24-1.61-.48-2.4-.72-.85-.26-1.68-.51-2.52-.77-.13-.04-.26-.08-.39-.12-.83-.26-1.64-.53-2.46-.79-1.77-.57-3.51-1.15-5.23-1.74-.92-.32-1.83-.63-2.73-.96-.8-.29-1.59-.57-2.37-.86-.84-.3-1.67-.61-2.5-.93-.83-.31-1.65-.63-2.46-.94-.97-.37-1.92-.75-2.85-1.14-.66-.26-1.31-.53-1.96-.8-.8-.32-1.58-.66-2.36-.99-.78-.33-1.55-.67-2.32-1.01-.66-.29-1.31-.59-1.96-.88-.36-.16-.72-.32-1.07-.49-1.25-.58-2.48-1.16-3.69-1.75-.55-.26-1.1-.53-1.63-.8-.41-.2-.83-.41-1.23-.62-2.8-1.42-5.5-2.87-8.08-4.35-1.15-.66-2.26-1.32-3.37-1.99-1.9-1.16-3.74-2.34-5.51-3.53,78.93,10.01,179.69,12.77,288.18,6.08,168.34-10.38,311-40.78,379.24-76.69,.18,.04,.37,.08,.54,.12,1.75,.39,3.46,.77,5.15,1.16,9.52,2.18,18.16,4.49,25.84,6.9,.72,.22,1.44,.45,2.14,.67,.66,.22,1.31,.43,1.96,.65,.53,.18,1.06,.36,1.58,.53,7.4,2.52,13.74,5.16,18.95,7.88,.83,.43,1.62,.86,2.38,1.3,.51,.29,1,.57,1.48,.87,.24,.14,.48,.29,.72,.43,.23,.15,.46,.29,.69,.44,.23,.15,.45,.29,.68,.44,.92,.6,1.78,1.21,2.6,1.83,.37,.28,.71,.56,1.05,.84,1.37,1.11,2.55,2.24,3.54,3.38,.14,.16,.28,.32,.41,.49,.12,.15,.24,.3,.36,.46,.1,.12,.2,.26,.29,.39,.1,.13,.2,.26,.28,.39,.09,.13,.19,.27,.27,.41,.09,.13,.18,.26,.25,.4,.29,.46,.54,.93,.75,1.39,.08,.15,.14,.31,.21,.46,.07,.15,.13,.31,.19,.46,.08,.2,.15,.4,.21,.61,.07,.21,.13,.42,.18,.63,.05,.19,.09,.37,.12,.56,.04,.18,.08,.36,.09,.55,.03,.16,.05,.32,.06,.47,.03,.32,.05,.63,.05,.95Z"/></g><path class="b" d="M1786.87,878.9c-68.24,35.91-210.9,66.31-379.24,76.69-108.49,6.69-209.25,3.92-288.18-6.08-20.4-13.74-32.18-29.95-32.18-47.31,0-6.79,1.8-13.41,5.22-19.77-23.47-12.27-37.03-26.74-37.03-42.24,0-41.1,95.31-74.99,218.2-79.67,25.6-19.55,90.01-33.42,165.42-33.42,97.88,0,177.22,23.37,177.22,52.2,0,3.75-1.34,7.41-3.91,10.93,69.56,10.66,115.9,29.73,115.9,51.48,0,8.76-7.53,17.09-21.06,24.6,30.29,3.46,57.18,7.72,79.63,12.59Z"/></g></svg>