<?xml version="1.0" encoding="UTF-8"?><svg id="a" xmlns="http://www.w3.org/2000/svg" viewBox="0 0 1920 1080"><defs><style>.b{fill:#fff;}.c{fill:#e2e2e2;}</style></defs><path class="b" d="M1372.88,0c-1.21,4.46-1.83,9.01-1.83,13.63,0,49.23,70.58,90.51,165.6,101.59,37.27,31.59,107.71,52.9,188.47,52.9,52.33,0,100.33-8.94,137.78-23.84,10.77,.79,21.81,1.21,33.04,1.21,9.54,0,18.94-.3,28.16-.88V0h-551.22Z"/><path class="c" d="M114.45,433.53c0,25.01,66.18,45.84,153.75,50.37-.51,2.3-.78,4.63-.78,6.99,0,39.62,73.7,71.75,164.61,71.75,71.35,0,132.09-19.79,154.93-47.46,104.44-7.77,182.61-39.27,182.61-76.95,0-37.57-77.7-68.99-181.67-76.88-25.55-29.77-104.27-51.46-197.43-51.46-113.87,0-206.18,32.39-206.18,72.36,0,3.74,.81,7.42,2.37,11.01-43.98,9.39-72.21,23.94-72.21,40.28Z"/><path class="c" d="M1897.51,815.07c0-23.04-78.43-42.22-182.2-46.39,.6-2.12,.92-4.26,.92-6.43,0-36.5-87.34-66.08-195.07-66.08-84.55,0-156.53,18.23-183.6,43.71-123.77,7.15-216.4,36.17-216.4,70.88s92.07,63.55,215.29,70.81c30.28,27.42,123.56,47.4,233.97,47.4,134.94,0,244.33-29.84,244.33-66.65,0-3.45-.96-6.83-2.81-10.14,52.11-8.65,85.57-22.05,85.57-37.1Z"/><path class="b" d="M60.49,410.9c0,25.01,70.88,45.84,164.67,50.37-.55,2.3-.83,4.63-.83,6.99,0,39.62,78.93,71.75,176.3,71.75,76.42,0,141.47-19.79,165.93-47.46,111.86-7.77,195.57-39.27,195.57-76.95,0-37.57-83.21-68.99-194.57-76.88-27.37-29.77-111.67-51.46-211.45-51.46-121.95,0-220.82,32.39-220.82,72.36,0,3.74,.87,7.42,2.54,11.01-47.1,9.39-77.33,23.94-77.33,40.28Z"/><path class="b" d="M1851.29,792.59c0-23.04-78.43-42.22-182.2-46.39,.6-2.12,.92-4.26,.92-6.43,0-36.5-87.34-66.08-195.07-66.08-84.55,0-156.53,18.23-183.6,43.71-123.77,7.15-216.4,36.17-216.4,70.88s92.07,63.55,215.29,70.81c30.28,27.42,123.56,47.4,233.97,47.4,134.94,0,244.33-29.84,244.33-66.65,0-3.45-.96-6.83-2.81-10.14,52.11-8.65,85.57-22.05,85.57-37.1Z"/></svg>