<?xml version="1.0" encoding="UTF-8"?><svg id="a" xmlns="http://www.w3.org/2000/svg" viewBox="0 0 1920 1080"><defs><style>.b{fill:#fff;opacity:.7;}</style></defs><path class="b" d="M1324.68,234.5c-.98-5.13-1.49-10.41-1.49-15.8,0-51.18,45.94-92.67,102.61-92.67,49.13,0,90.19,31.19,100.24,72.84,40.85,10.86,70.77,45.96,70.77,87.57,0,50.28-43.67,91.05-97.54,91.05-12.26,0-23.98-2.12-34.79-5.97-14.44,9.8-33.28,15.72-53.88,15.72-32.39,0-60.41-14.65-73.85-35.95-2.38,.12-4.79,.18-7.22,.18-50.61,0-91.63-26.21-91.63-58.53,0-31.29,38.43-56.84,86.79-58.45Z"/><path class="b" d="M1729.64,853.61c.94-5.13,1.43-10.41,1.43-15.8,0-51.18-44.16-92.67-98.64-92.67-47.23,0-86.7,31.19-96.37,72.84-39.27,10.86-68.03,45.96-68.03,87.57,0,50.28,41.98,91.05,93.77,91.05,11.78,0,23.06-2.12,33.45-5.97,13.88,9.8,31.99,15.72,51.8,15.72,31.14,0,58.07-14.65,71-35.95,2.29,.12,4.61,.18,6.94,.18,48.65,0,88.09-26.21,88.09-58.53,0-31.29-36.95-56.84-83.43-58.45Z"/><path class="b" d="M1578.77,798.1c.94-5.13,1.43-10.41,1.43-15.8,0-51.18-44.16-92.67-98.64-92.67-47.23,0-86.7,31.19-96.37,72.84-39.27,10.86-68.03,45.96-68.03,87.57,0,50.28,41.98,91.05,93.77,91.05,11.78,0,23.06-2.12,33.45-5.97,13.88,9.8,31.99,15.72,51.8,15.72,31.14,0,58.07-14.65,71-35.95,2.29,.12,4.61,.18,6.94,.18,48.65,0,88.09-26.21,88.09-58.53,0-31.29-36.95-56.84-83.43-58.45Z"/><g><path class="b" d="M381.61,224.21c-.72-3.76-1.09-7.63-1.09-11.57,0-37.49,33.65-67.88,75.15-67.88,35.98,0,66.06,22.84,73.42,53.35,29.92,7.96,51.83,33.66,51.83,64.14,0,36.83-31.99,66.69-71.44,66.69-8.98,0-17.57-1.55-25.48-4.37-10.58,7.18-24.37,11.52-39.46,11.52-23.72,0-44.24-10.73-54.09-26.33-1.75,.09-3.51,.13-5.29,.13-37.06,0-67.11-19.19-67.11-42.87,0-22.92,28.15-41.63,63.56-42.81Z"/><path class="b" d="M474.75,309.34c.69-3.76,1.05-7.63,1.05-11.57,0-37.49-32.35-67.88-72.25-67.88-34.59,0-63.5,22.84-70.58,53.35-28.76,7.96-49.83,33.66-49.83,64.14,0,36.83,30.75,66.69,68.68,66.69,8.63,0,16.89-1.55,24.5-4.37,10.17,7.18,23.43,11.52,37.94,11.52,22.81,0,42.53-10.73,52-26.33,1.68,.09,3.37,.13,5.09,.13,35.63,0,64.52-19.19,64.52-42.87s-27.06-41.63-61.11-42.81Z"/><path class="b" d="M388.38,143.16c.69-3.76,1.05-7.63,1.05-11.57,0-37.49-32.35-67.88-72.25-67.88-34.59,0-63.5,22.84-70.58,53.35-28.76,7.96-49.83,33.66-49.83,64.14,0,36.83,30.75,66.69,68.68,66.69,8.63,0,16.89-1.55,24.5-4.37,10.17,7.18,23.43,11.52,37.94,11.52,22.81,0,42.53-10.73,52-26.33,1.68,.09,3.37,.13,5.09,.13,35.63,0,64.52-19.19,64.52-42.87s-27.06-41.63-61.11-42.81Z"/><path class="b" d="M288.98,202.39c.69-3.76,1.05-7.63,1.05-11.57,0-37.49-32.35-67.88-72.25-67.88-34.59,0-63.5,22.84-70.58,53.35-28.76,7.96-49.83,33.66-49.83,64.14,0,36.83,30.75,66.69,68.68,66.69,8.63,0,16.89-1.55,24.5-4.37,10.17,7.18,23.43,11.52,37.94,11.52,22.81,0,42.53-10.73,52-26.33,1.68,.09,3.37,.13,5.09,.13,35.63,0,64.52-19.19,64.52-42.87,0-22.92-27.06-41.63-61.11-42.81Z"/></g><path class="b" d="M596.24,614.97c1.46-2.99,2.24-6.07,2.24-9.21,0-29.83-68.88-54.02-153.85-54.02-73.67,0-135.23,18.18-150.31,42.46-61.26,6.33-106.11,26.79-106.11,51.04,0,29.31,65.48,53.07,146.26,53.07,18.38,0,35.96-1.23,52.17-3.48,21.65,5.71,49.9,9.17,80.79,9.17,48.57,0,90.57-8.54,110.73-20.95,3.57,.07,7.18,.11,10.83,.11,75.88,0,137.39-15.27,137.39-34.12s-57.63-33.13-130.13-34.07Z"/><path class="b" d="M942.93,656.57c1.87-7.67,2.85-15.55,2.85-23.59,0-76.43-87.74-138.4-195.98-138.4-93.84,0-172.26,46.58-191.46,108.78-78.03,16.22-135.16,68.63-135.16,130.78,0,75.09,83.41,135.97,186.3,135.97,23.41,0,45.81-3.16,66.45-8.91,27.58,14.63,63.56,23.48,102.91,23.48,61.86,0,115.37-21.88,141.05-53.69,4.55,.18,9.15,.27,13.79,.27,96.65,0,175.01-39.13,175.01-87.41s-73.4-84.88-165.76-87.29Z"/></svg>