<?xml version="1.0" encoding="UTF-8"?><svg id="a" xmlns="http://www.w3.org/2000/svg" viewBox="0 0 201.16 250.28"><defs><style>.b{fill:#fff;}.c{fill:#c2b2b1;}.d{fill:#a7cdec;}.e{fill:#fcd7d3;}</style></defs><g><path class="b" d="M125.45,133.75c.06,.95-.51,1.87-1.52,2.66h-.01c-1.78,1.72-7.18,2.55-8.52,2.74-.1,.01-.18,.02-.23,.03-.05,0-.08,0-.08,0l-.65,3.29c.31,1.66,.02,3.25-.71,4.4l4.35,1.51c.54,.19,.99,.53,1.31,.95,1.57-.48,2.89-.13,3.98,.97-.15,1.15-.63,2.21-1.36,3.21,.21,.05,.41,.11,.6,.19h-.68c-.15,.3-.51,.87-1.16,.88h-.01l-.09,.03c-.13,.11-.76,.47-2.91-.03l-.85-.42c-.8-.31-1.73-.76-2.79-1.39l-.58,1.34-.96,2.22-4.34-2.16c-.18-.09-.35-.2-.5-.32-.01,0-.01,0-.02,0-.65,.31-1.36,.58-2.11,.78-.5,.15-1.02,.27-1.55,.35-.26,.04-.53,.08-.8,.11-.55,.06-1.11,.09-1.69,.09-.96,0-1.9-.09-2.78-.26-.75-.14-1.46-.33-2.13-.57-.67-.24-1.3-.53-1.87-.86h-.03s0,0-.03-.01c-.04,0-.11-.03-.2-.03-.15-.02-.37-.06-.64-.1-.19-.02-.4-.05-.64-.07-.05-.01-.11-.01-.17-.02-.16-.02-.32-.04-.49-.05-.31-.03-.66-.06-1.02-.08-.44-.02-.92-.04-1.43-.05-.51,0-1.04,0-1.6,0-.32,.01-.64,.02-.97,.04-.66,.04-1.34,.1-2.04,.2-.21,.03-.42,.06-.63,.09-.01,0-.03,0-.04,0-.45,.07-.9,.16-1.35,.26-1.12,.26-2.24,.61-3.3,1.08-.82,.36-1.5,.63-2.07,.81-.05,.01-.09,.03-.13,.05-.42,.14-.77,.24-1.07,.29-.43,.09-.76,.11-.99,.09-.06-.01-.11-.02-.16-.03-.84-.22-.23-1.21-.23-1.21,.43-1.75,1.13-2.61,1.74-3.02,.66-.46,1.22-.4,1.22-.4,4.3,2.26,10.98-1.47,12.1-2.13-.21-.25-.41-.53-.59-.83-.64-1.05-1.09-2.39-1.31-3.9-.07-.5-.11-1.02-.13-1.56-.01-.41-.01-.83,.01-1.26,.01-.21,.02-.41,.04-.62,.04-.52,.1-1.04,.19-1.57,.46-2.77,1.55-5.17,2.9-6.83,.02-.02,.03-.04,.05-.06v-.02c-9.26-2.75-16.04-10.52-16.46-19.8-.01-.27-.02-.54-.02-.81,0-.92,.06-1.82,.18-2.71,.57-4.38,2.58-8.35,5.55-11.53l.91-5.14c2.1-.03,3.89,.12,5.4,.38,3.49-1.82,7.53-2.87,11.83-2.87,1.75,0,3.45,.18,5.08,.5h-.01c6.18-.66,11.82,1.71,11.82,1.71l-.67,3.59c4.7,3.98,7.65,9.66,7.65,15.98,0,.48-.02,.95-.05,1.42,1.77,1.82,2.87,4.3,2.87,7.04,0,4.48-2.92,8.27-6.97,9.58,3.7,.37,6.44,1.87,6.56,3.83Z"/><path class="c" d="M90.29,137.6c.48-2.8,1.57-5.23,2.95-6.89v-.02c-9.56-2.84-16.48-11.03-16.48-20.71,0-4.03,1.2-7.8,3.3-11.04-2.99,3.63-4.76,8.15-4.76,13.04,0,9.67,6.92,17.86,16.48,20.7v.02c-1.39,1.66-2.48,4.09-2.95,6.89-.59,3.48-.09,6.73,1.16,8.83,1.03-.47,1.78-.91,2.1-1.09-1.7-1.99-2.48-5.7-1.79-9.73Z"/><path class="c" d="M109.66,152.19l3.88,1.93-.96,2.22v.02l-4.38-2.18c-.18-.09-.34-.2-.48-.31h-.01c-.65,.31-1.35,.57-2.1,.78-.5,.14-1.01,.26-1.55,.35-.26,.04-.53,.08-.8,.11-.55,.06-1.11,.09-1.69,.09-.96,0-1.9-.09-2.78-.26-.75-.13-1.46-.32-2.13-.57-.68-.24-1.32-.53-1.9-.86,0,0,0,0-.03-.01-.03,0-.1,0-.2-.03-.15-.02-.37-.06-.64-.1-.19-.02-.4-.05-.64-.07-.05-.01-.11-.01-.17-.02-.15-.02-.31-.04-.49-.05-.31-.03-.66-.06-1.02-.08-.89-.05-1.92-.08-3.03-.05-.32,0-.64,.02-.97,.04-.66,.04-1.34,.1-2.04,.2-.21,.02-.42,.05-.63,.09-.01,0-.03,0-.04,0-.45,.07-.9,.15-1.35,.26-1.13,.25-2.26,.6-3.34,1.08-.8,.35-1.47,.62-2.03,.81-.05,.01-.09,.03-.13,.05-.41,.13-.77,.23-1.07,.29-.43,.09-.76,.11-.99,.09-.06-.01-.11-.02-.16-.03-.9-.19-.27-1.21-.27-1.21,.44-1.79,1.17-2.65,1.79-3.05,0,.01-.01,.02-.01,.03-.12,.3-.22,.64-.32,1.02,0,0-1.73,2.82,4.65,0s14.59-1.26,14.59-1.26c1.84,1.05,4.21,1.68,6.81,1.68,2.29,0,4.41-.49,6.14-1.33,.14,.12,.31,.23,.49,.32Z"/><path class="c" d="M86.57,94.09h-3.58l-.63,2.53s.42-1.31,4.22-2.53Z"/><path class="c" d="M114.36,94.09l.39-1.56s-4.1-1.43-6.37-.91c0,0,4.42,1.11,5.98,2.47Z"/><path class="c" d="M120.03,110.88s-4.58-4.8-8.12,0c0,0,4.21-2.15,8.12,0Z"/><circle class="e" cx="111.56" cy="118.96" r="4.25"/><path class="c" d="M123.92,136.42c-1.79,1.62-7.98,2.64-8.75,2.76-.05,0-.08,0-.08,0l-.28-.64c4.07,.38,8.83-2,9.11-2.13Z"/><path class="c" d="M121.99,153.57s-.03,.08-.06,.14c-.15,.3-.51,.87-1.16,.88h-.07l-.03,.03c-.13,.11-.76,.47-2.91-.03l-.85-.42-2.79-1.39,.49-.2,3.18,1.62s3.11,.85,4.06-.39c.01,0,.01-.02,.02-.03,.01-.02,.02-.03,.03-.05,.01-.01,.01-.02,.01-.02,.03-.04,.06-.09,.08-.14Z"/></g><path class="d" d="M120.67,154.62c-.13,.11-.76,.47-2.91-.03l-.85-.42c1.81,.7,3,.68,3.76,.45Z"/><path class="d" d="M121.93,153.71c-.15,.3-.51,.87-1.16,.88,.65-.23,.97-.61,1.08-.78,.01,0,.01-.02,.02-.03,.01-.02,.02-.04,.03-.05s.01-.02,.01-.02h.02Z"/></svg>