<?xml version="1.0" encoding="UTF-8"?><svg id="a" xmlns="http://www.w3.org/2000/svg" viewBox="0 0 1920 1080"><defs><style>.b{fill:#fff;opacity:.7;}</style></defs><path class="b" d="M1920,941.34v136.76h-679.22c-11.83-19.36-18.4-40.8-18.4-63.35,0-71.42,65.89-131.64,155.87-150.28,22.15-71.48,112.58-125,220.79-125,124.82,0,226,71.2,226,159.03,0,9.24-1.13,18.3-3.29,27.11,36.07,.93,69.63,6.58,98.25,15.73Z"/><path class="b" d="M1326.83,286.37c-3.52-3.86-6.73-8.08-9.55-12.67-26.83-43.58-9.47-103,38.79-132.71,41.84-25.76,93.15-20.72,123.55,9.47,40.48-12.17,84.36,2.03,106.18,37.47,26.36,42.82,10.55,100.43-35.33,128.67-10.44,6.43-21.53,10.77-32.76,13.16-7.16,15.91-20.09,30.84-37.64,41.64-27.58,16.98-59.12,19.19-81.73,8.11-1.97,1.35-3.99,2.67-6.06,3.94-43.09,26.53-91.77,25.72-108.71-1.8s2.93-68.55,43.26-95.27Z"/><path class="b" d="M596.24,614.97c1.46-2.99,2.24-6.07,2.24-9.21,0-29.83-68.88-54.02-153.85-54.02-73.67,0-135.23,18.18-150.31,42.46-61.26,6.33-106.11,26.79-106.11,51.04,0,29.31,65.48,53.07,146.26,53.07,18.38,0,35.96-1.23,52.17-3.48,21.65,5.71,49.9,9.17,80.79,9.17,48.57,0,90.57-8.54,110.73-20.95,3.57,.07,7.18,.11,10.83,.11,75.88,0,137.39-15.27,137.39-34.12s-57.63-33.13-130.13-34.07Z"/></svg>