<?xml version="1.0" encoding="UTF-8"?><svg id="a" xmlns="http://www.w3.org/2000/svg" viewBox="0 0 1920 1080"><defs><style>.b{fill:#fff;}.c{fill:#eaeaea;}</style></defs><path class="b" d="M506.56,990.45c0,39.08-44.85,72.95-110.34,89.55H0v-362.03c28.29-8.98,59.67-13.97,92.7-13.97,124.81,0,225.99,71.2,225.99,159.03,0,9.25-1.13,18.3-3.28,27.11,106.5,2.76,191.15,46.61,191.15,100.31Z"/><path class="b" d="M1576.19,483.82c-.75-4.72-1.15-9.58-1.15-14.53,0-47.07,35.39-85.23,79.04-85.23,37.85,0,69.47,28.68,77.22,66.99,31.47,9.99,54.51,42.26,54.51,80.54,0,46.24-33.64,83.73-75.13,83.73-9.44,0-18.47-1.95-26.8-5.49-11.12,9.01-25.63,14.46-41.5,14.46-24.95,0-46.53-13.47-56.89-33.06-1.84,.11-3.69,.17-5.56,.17-38.98,0-70.58-24.1-70.58-53.83s29.6-52.27,66.85-53.75Z"/><path class="b" d="M536.23,227.39c1.43-5.86,2.19-11.89,2.19-18.04,0-58.44-67.33-105.82-150.38-105.82-72.01,0-132.18,35.62-146.92,83.18-59.87,12.4-103.72,52.48-103.72,100,0,57.42,64,103.97,142.95,103.97,17.96,0,35.15-2.42,50.99-6.82,21.16,11.19,48.77,17.96,78.97,17.96,47.47,0,88.53-16.73,108.23-41.05,3.49,.14,7.02,.21,10.59,.21,74.17,0,134.29-29.92,134.29-66.84s-56.33-64.91-127.19-66.74Z"/><path class="c" d="M663.43,294.14c0,36.91-60.12,66.83-134.29,66.83-3.56,0-7.09-.07-10.58-.21-19.71,24.33-60.77,41.05-108.23,41.05-30.2,0-57.81-6.76-78.97-17.95-15.84,4.4-33.03,6.82-50.99,6.82-62.97,0-116.43-29.61-135.49-70.73,50.24,17.91,110.78,28.36,175.95,28.36,133.53,0,247.66-43.89,293.47-105.85,30,12.26,49.13,30.86,49.13,51.68Z"/><path class="b" d="M1356.75,688.39c.88-3.62,1.35-7.34,1.35-11.14,0-36.09-41.57-65.34-92.85-65.34-44.46,0-81.62,21.99-90.71,51.36-36.97,7.66-64.04,32.4-64.04,61.75,0,35.45,39.52,64.19,88.27,64.19,11.09,0,21.7-1.49,31.48-4.21,13.07,6.91,30.11,11.09,48.76,11.09,29.31,0,54.66-10.33,66.83-25.35,2.16,.08,4.34,.13,6.54,.13,45.79,0,82.92-18.48,82.92-41.27s-34.78-40.08-78.54-41.21Z"/><path class="c" d="M1435.29,729.6c0,22.79-37.12,41.27-82.92,41.27-2.2,0-4.38-.05-6.53-.13-12.17,15.02-37.52,25.35-66.83,25.35-18.65,0-35.69-4.18-48.76-11.09-9.78,2.72-20.39,4.21-31.49,4.21-34.91,0-65.08-14.74-79.4-36.12,25.83,9.84,56.08,15.49,88.41,15.49,78.55,0,144.79-33.37,165.29-78.95,35.78,4.57,62.23,20.73,62.23,39.97Z"/><path class="b" d="M948.87,893.23c.58-2.37,.88-4.8,.88-7.28,0-23.58-27.16-42.69-60.67-42.69-29.05,0-53.33,14.37-59.27,33.56-24.16,5-41.84,21.17-41.84,40.34,0,23.17,25.82,41.94,57.67,41.94,7.25,0,14.18-.98,20.57-2.75,8.54,4.51,19.68,7.24,31.86,7.24,19.15,0,35.72-6.75,43.67-16.56,1.41,.05,2.83,.08,4.27,.08,29.92,0,54.18-12.07,54.18-26.96s-22.72-26.19-51.31-26.93Z"/><path class="c" d="M1000.19,920.16c0,14.89-24.26,26.96-54.18,26.96-1.44,0-2.86-.03-4.27-.08-7.95,9.81-24.52,16.56-43.67,16.56-12.18,0-23.32-2.73-31.86-7.24-6.39,1.77-13.32,2.75-20.57,2.75-16.9,0-32.11-5.29-42.66-13.73,17.08,4.33,36.06,6.74,56.06,6.74,58.77,0,108.79-20.81,127.47-49.88,8.51,4.77,13.68,11.04,13.68,17.92Z"/><path class="c" d="M1785.47,531.6c0,46.24-33.64,83.73-75.13,83.73-9.44,0-18.48-1.95-26.8-5.49-11.12,9.01-25.63,14.46-41.51,14.46-24.52,0-45.8-13.03-56.35-32.09h.57c89.42,0,162.69-56.17,169.32-127.47,18.16,15.28,29.9,39.54,29.9,66.86Z"/></svg>