<?xml version="1.0" encoding="UTF-8"?><svg id="a" xmlns="http://www.w3.org/2000/svg" viewBox="0 0 1920 1080"><defs><style>.b{fill:#fff;}.c{fill:#eaeaea;}</style></defs><path class="b" d="M1234.52,501.57c-1.4-4.72-2.13-9.58-2.13-14.53,0-47.07,65.65-85.23,146.64-85.23,70.21,0,128.89,28.68,143.26,66.99,58.38,9.99,101.13,42.26,101.13,80.54,0,46.24-62.41,83.73-139.39,83.73-17.52,0-34.28-1.95-49.72-5.49-20.64,9.01-47.56,14.46-77,14.46-46.29,0-86.32-13.47-105.54-33.06-3.41,.11-6.85,.17-10.32,.17-72.32,0-130.95-24.1-130.95-53.83s54.92-52.27,124.03-53.75Z"/><path class="c" d="M1623.41,549.35c0,46.24-62.41,83.73-139.39,83.73-17.52,0-34.28-1.95-49.72-5.49-20.64,9.01-47.56,14.46-77,14.46-46.29,0-86.33-13.47-105.54-33.06-3.41,.11-6.85,.16-10.32,.16-72.32,0-130.95-24.1-130.95-53.82,0-4.7,1.47-9.27,4.22-13.61,23.59,9.46,55.84,15.29,91.4,15.29,3.47,0,6.91-.06,10.32-.17,19.21,19.59,59.25,33.06,105.54,33.06,29.44,0,56.36-5.45,77-14.46,15.45,3.54,32.2,5.49,49.72,5.49,76.99,0,139.39-37.49,139.39-83.73,0-1.22-.04-2.44-.13-3.65,22.05,14.81,35.46,34.36,35.46,55.8Z"/><path class="b" d="M658.05,312.9c3.49-5.96,5.38-12.25,5.38-18.77,0-16.48-11.99-31.56-31.85-43.21-17.82-28.11-52.54-49.73-95.08-58.49-11.51-50.4-73.59-88.9-148.46-88.9s-132.18,35.62-146.92,83.18c-59.87,12.4-103.72,52.48-103.72,100s45.88,89.43,107.86,100.81c10.68,49.74,69.84,87.8,141.23,87.8,17.96,0,35.15-2.42,50.99-6.82,21.16,11.19,48.77,17.96,78.97,17.96,47.47,0,88.53-16.73,108.23-41.05,3.49,.14,7.02,.21,10.59,.21,74.17,0,134.29-29.92,134.29-66.84,0-33.05-48.2-60.49-111.52-65.87Z"/><path class="c" d="M769.49,378.78c0,36.91-60.12,66.84-134.29,66.84-3.56,0-7.09-.07-10.58-.21-19.71,24.32-60.77,41.05-108.24,41.05-30.19,0-57.8-6.77-78.97-17.95-15.83,4.4-33.02,6.81-50.98,6.81-71.4,0-130.56-38.06-141.24-87.8-59.88-10.99-104.74-49.46-107.7-95.9,19.01,24.16,50.99,42.24,89.03,49.22,10.68,49.74,69.84,87.8,141.23,87.8,17.97,0,35.15-2.42,50.99-6.82,21.17,11.19,48.77,17.96,78.97,17.96,47.47,0,88.53-16.73,108.23-41.05,3.5,.14,7.03,.21,10.59,.21,66.53,0,121.77-24.09,132.43-55.69,13.01,10.29,20.53,22.48,20.53,35.53Z"/><path class="b" d="M1069.46,822.33c-14.37-38.31-73.05-66.99-143.26-66.99-.54,0-1.08,0-1.62,.01-18.83-27.76-60.27-47.04-108.37-47.04-57.07,0-104.77,27.14-116.45,63.39-47.45,9.45-82.2,39.99-82.2,76.2,0,24.25,15.58,45.95,40.12,60.48,0,.15-.01,.31-.01,.46,0,23.26,35.88,43.07,86.12,50.59,6.21,18.3,28.91,31.87,55.98,31.87,7.25,0,14.18-.98,20.57-2.75,8.54,4.51,19.68,7.24,31.86,7.24,7,0,13.66-.91,19.67-2.54,10.35,1.5,21.29,2.31,32.6,2.31,29.45,0,56.36-5.45,77-14.46,15.44,3.54,32.2,5.49,49.72,5.49,76.99,0,139.39-37.49,139.39-83.73,0-38.27-42.75-70.55-101.13-80.54Z"/><path class="c" d="M1168.56,902.86c0,46.24-62.41,83.73-139.4,83.73-17.51,0-34.27-1.95-49.72-5.49-20.63,9.01-47.55,14.46-77,14.46-11.31,0-22.25-.81-32.6-2.31-6.02,1.62-12.67,2.54-19.67,2.54-12.18,0-23.32-2.73-31.86-7.24-6.39,1.77-13.32,2.75-20.57,2.75-27.07,0-49.78-13.57-55.98-31.87-36.61-5.49-65.59-17.49-78.61-32.6,58.15,16.16,127.33,25.52,201.55,25.52,123.56,0,233.13-25.95,301.16-65.96,1.77,5.32,2.7,10.83,2.7,16.47Z"/></svg>