<?xml version="1.0" encoding="UTF-8"?><svg id="a" xmlns="http://www.w3.org/2000/svg" viewBox="0 0 1920 1080"><defs><style>.b{fill:#fff;opacity:.3;}</style></defs><path class="b" d="M1731.55,381.98c.06-1.29,.09-2.58,.09-3.88,0-66.48-73.58-120.37-164.36-120.37-66.97,0-124.58,29.34-150.19,71.42-10.24-1.3-20.78-1.98-31.53-1.98-100.36,0-181.72,58.82-181.72,131.37s81.36,131.37,181.72,131.37c44.61,0,85.46-11.63,117.09-30.92,40.31,25.2,101.98,41.33,171.11,41.33,121.45,0,219.91-49.75,219.91-111.11,0-51.26-68.71-94.41-162.13-107.23Z"/><path class="b" d="M695.07,768.77c.06-1.29,.09-2.58,.09-3.88,0-66.48-73.58-120.37-164.36-120.37-66.97,0-124.58,29.34-150.19,71.42-10.24-1.3-20.78-1.98-31.53-1.98-100.36,0-181.72,58.82-181.72,131.37s81.36,131.37,181.72,131.37c44.61,0,85.46-11.63,117.09-30.92,40.31,25.2,101.98,41.33,171.11,41.33,121.45,0,219.91-49.75,219.91-111.11,0-51.26-68.71-94.41-162.13-107.23Z"/><path class="b" d="M150.39,130.13c-.03-.77-.04-1.55-.04-2.32,0-39.79,35.15-72.05,78.51-72.05,31.99,0,59.51,17.56,71.74,42.75,4.89-.78,9.92-1.18,15.06-1.18,47.94,0,86.81,35.2,86.81,78.63s-38.86,78.63-86.81,78.63c-21.31,0-40.83-6.96-55.93-18.5-19.26,15.09-48.72,24.73-81.74,24.73-58.02,0-105.05-29.78-105.05-66.51,0-30.68,32.82-56.51,77.45-64.18Z"/><path class="b" d="M1671.39,668.46c0-56.79-74.97-102.84-167.45-102.84-17.76,0-34.86,1.7-50.92,4.85-25.64-29.12-67.97-49.61-117.09-54.23,.36-3.78,.56-7.6,.56-11.45,0-90.39-101.3-163.67-226.25-163.67s-226.25,73.28-226.25,163.67c0,25.5,8.06,49.63,22.44,71.15-104.79,25.55-180.06,95.75-180.06,178.35,0,104.2,119.75,188.67,267.48,188.67,115.14,0,213.29-51.32,250.98-123.3,1.81-1.02,3.6-2.06,5.35-3.13,40.31,25.2,101.98,41.33,171.11,41.33,121.45,0,219.91-49.75,219.91-111.11,0-5.83-.9-11.56-2.61-17.14,20.61-17.09,32.8-38.24,32.8-61.14Z"/></svg>