<?xml version="1.0" encoding="UTF-8"?><svg id="a" xmlns="http://www.w3.org/2000/svg" viewBox="0 0 1920 1080"><defs><style>.b,.c{fill:#fff;}.c{opacity:.3;}</style></defs><path class="b" d="M151.24,1080H0v-60.93c68.28,7.46,124.31,30.49,151.24,60.93Z"/><path class="c" d="M1060.25,423.7c.06-1.29,.09-2.58,.09-3.88,0-66.48-73.58-120.37-164.36-120.37-66.97,0-124.58,29.34-150.19,71.42-10.24-1.3-20.78-1.98-31.53-1.98-100.36,0-181.72,58.82-181.72,131.37s81.36,131.37,181.72,131.37c44.61,0,85.46-11.63,117.09-30.92,40.31,25.2,101.98,41.33,171.11,41.33,121.45,0,219.91-49.75,219.91-111.11,0-51.26-68.71-94.41-162.13-107.23Z"/><path class="c" d="M1920,1017.96v62.04H726.48c-10.73-21.39-16.52-44.2-16.52-67.88,0-122.59,155.28-221.96,346.82-221.96,36.75,0,72.16,3.67,105.4,10.45,55.83-44.94,143.2-73.87,241.43-73.87,168.56,0,305.21,85.18,305.21,190.26,0,25.24-7.91,49.33-22.23,71.37,86.52,.44,166.79,11.29,233.41,29.59Z"/></svg>